<svg width="141" height="138" viewBox="0 0 141 138" fill="none" xmlns="http://www.w3.org/2000/svg">
<path d="M72.7206 12.4893C73.2676 12.8553 73.7903 13.2564 74.2852 13.6899L80.2414 18.9064C81.8577 20.322 84.04 20.9068 86.1475 20.4889L93.9139 18.9494C102.163 17.3139 110.177 22.6758 111.812 30.9252L111.972 31.8988L112.069 32.8807L112.592 40.7807C112.734 42.9248 113.864 44.8814 115.65 46.0762L122.23 50.479C129.22 55.1559 131.094 64.6136 126.418 71.6034C126.051 72.1503 125.651 72.6731 125.217 73.168L120 79.1241C118.585 80.7404 118 82.9227 118.418 85.0302L119.957 92.7967C121.593 101.046 116.231 109.059 107.982 110.695C107.336 110.823 106.683 110.909 106.026 110.952L98.126 111.475C95.9822 111.617 94.0256 112.747 92.8307 114.532L88.4276 121.112C83.7508 128.102 74.2933 129.977 67.3034 125.3C66.7565 124.934 66.2339 124.533 65.739 124.1L59.7829 118.883C58.1666 117.467 55.9843 116.883 53.8768 117.301L46.1103 118.84C37.8608 120.476 29.8475 115.114 28.2121 106.864C28.0841 106.219 27.998 105.566 27.9547 104.909L27.4318 97.0087C27.2898 94.865 26.1602 92.9084 24.3744 91.7134L17.7943 87.3103C10.8045 82.6335 8.92962 73.176 13.6066 66.1861C13.9725 65.6393 14.3736 65.1167 14.8071 64.6217L20.0236 58.6656C21.4392 57.0493 22.024 54.867 21.6061 52.7595L20.0666 44.9931C18.4312 36.7436 23.793 28.7302 32.0425 27.0948C32.6881 26.9668 33.3413 26.8809 33.998 26.8374L41.8979 26.3145C44.042 26.1726 45.9986 25.043 47.1935 23.2571L51.5963 16.677C56.2732 9.68727 65.7309 7.81241 72.7206 12.4893Z" fill="#6244E5"/>
<path d="M87.9536 43.8673L92.3216 45.0376L91.8505 46.7956L85.4 45.0672L88.0234 35.2766L94.2305 36.9398L93.7631 38.6842L89.6385 37.5791L89.0226 39.878L92.9036 40.9179L92.4471 42.6218L88.566 41.5819L87.9536 43.8673Z" fill="white"/>
<path d="M80.0708 41.7547L84.4387 42.9251L83.9677 44.6831L77.5172 42.9547L80.1406 33.1641L86.3477 34.8272L85.8802 36.5717L81.7557 35.4665L81.1397 37.7654L85.0208 38.8054L84.5643 40.5093L80.6832 39.4693L80.0708 41.7547Z" fill="white"/>
<path d="M76.4239 42.6627L74.1791 42.0612L73.2418 37.8243L71.903 37.4656L70.9066 41.1844L68.8375 40.63L71.4609 30.8394L75.2744 31.8612C77.7085 32.5134 78.1684 34.0425 77.7807 35.4895C77.393 36.9364 76.4642 37.6442 75.3403 37.8358L76.4239 42.6627ZM73.4098 36.1155C74.3834 36.3764 75.2791 36.2251 75.5762 35.1162C75.8263 34.1831 75.339 33.6757 74.2301 33.3786L73.0806 33.0706L72.3415 35.8293L73.4098 36.1155Z" fill="white"/>
<path d="M63.4474 39.1851L61.3649 38.6271L63.9883 28.8364L70.1548 30.4887L69.6873 32.2332L65.6034 31.1389L64.9367 33.6271L68.6961 34.6345L68.2359 36.3519L64.4765 35.3445L63.4474 39.1851Z" fill="white"/>
<path d="M93.0786 76.4854C87.312 74.9403 86.6583 70.5412 88.5218 63.5865C90.3775 56.6609 93.4174 53.3136 99.184 54.8587C105.009 56.4194 105.525 60.7507 103.739 67.4156C101.806 74.6311 98.8741 78.0384 93.0786 76.4854ZM94.1107 73.0971C96.4579 73.7261 97.6198 71.708 99.0562 66.3471C100.454 61.1311 100.549 58.9205 98.2021 58.2916C95.8259 57.6549 94.6081 59.5337 93.1794 64.8656C91.7818 70.0816 91.7055 72.4527 94.1107 73.0971Z" fill="white"/>
<path d="M76.1294 71.9435C70.3628 70.3983 69.7091 65.9992 71.5726 59.0446C73.4283 52.1189 76.4682 48.7716 82.2348 50.3167C88.0593 51.8774 88.5759 56.2087 86.7901 62.8736C84.8567 70.0891 81.9249 73.4964 76.1294 71.9435ZM77.1615 68.5551C79.5087 69.1841 80.6706 67.166 82.107 61.8051C83.5046 56.5891 83.6001 54.3785 81.2529 53.7496C78.8767 53.1129 77.6589 54.9917 76.2302 60.3236C74.8326 65.5396 74.7563 67.9107 77.1615 68.5551Z" fill="white"/>
<path d="M65.8929 45.9375C70.0657 47.0556 71.682 49.6006 70.7581 53.049C69.9583 56.0337 68.0182 57.5948 64.0091 60.1544L59.5803 63.0052L59.557 63.0922L67.8157 65.3051L66.8063 69.0722L53.4186 65.485L54.3969 61.8338L60.2939 57.7923C63.7249 55.4195 65.7167 54.245 66.2913 52.1006C66.664 50.7097 66.128 49.6964 64.5342 49.2694C62.6797 48.7724 61.6524 49.7085 60.8346 51.6013L57.0722 49.8788C58.6752 45.867 62.0099 44.897 65.8929 45.9375Z" fill="white"/>
<path d="M48.8204 45.8046C47.0238 45.3232 46.0085 45.9829 45.6901 47.171C45.2242 48.9097 46.3998 49.9701 48.6052 51.2443C51.2644 52.7954 54.101 54.6114 52.9751 58.8132C51.9968 62.4644 48.9979 63.8039 45.6706 63.4714L45.0494 65.7896L41.3403 64.7957L41.9614 62.4775C39.4756 61.4387 37.4856 59.4768 38.1535 55.2455L42.1726 55.546C41.9458 57.7835 42.2727 59.1135 44.8518 59.8045C46.6484 60.2859 48.0963 59.8664 48.5234 58.2726C49.028 56.389 47.3344 55.4072 45.3164 54.2453C42.7576 52.7833 39.9598 50.8223 41.0857 46.6205C41.9553 43.375 44.7068 42.0314 47.6595 42.1393L48.3583 39.5313L52.0385 40.5174L51.3475 43.0964C53.8701 44.114 55.6107 46.1954 54.8719 49.8797L50.8646 49.3029C51.0853 47.4364 50.7329 46.3171 48.8204 45.8046Z" fill="white"/>
<path d="M95.7289 106.845L94.6741 106.563L95.7145 102.68C95.935 101.857 95.7548 101.324 94.9434 101.106C94.2596 100.923 93.3997 101.165 93.0122 101.359L91.8227 105.799L90.7679 105.516L92.3643 99.5582L93.2916 99.8066L93.1601 100.529C93.8638 100.221 94.7051 100.049 95.528 100.269C96.8031 100.611 97.1731 101.455 96.8128 102.8L95.7289 106.845Z" fill="white"/>
<path d="M86.4074 104.496C84.3442 103.944 84.0175 102.427 84.4896 100.665C85.0051 98.7414 86.325 97.803 88.2259 98.3123C90.1153 98.8186 90.5657 100.244 90.0906 102.017C89.5657 103.976 88.4127 105.034 86.4074 104.496ZM86.6921 103.666C87.7237 103.942 88.5173 103.484 88.9708 101.792C89.4118 100.146 88.9782 99.4457 87.9466 99.1693C86.8918 98.8866 86.017 99.3231 85.5915 100.911C85.1692 102.487 85.533 103.355 86.6921 103.666Z" fill="white"/>
<path d="M82.238 103.23L81.1832 102.947L82.7796 96.9893L83.8344 97.2719L82.238 103.23ZM84.5903 95.4246C84.4598 95.9114 84.1071 96.1151 83.6318 95.9877C83.1566 95.8604 82.9646 95.5108 83.095 95.0239C83.2254 94.5371 83.5635 94.3419 84.0387 94.4693C84.5139 94.5966 84.7207 94.9378 84.5903 95.4246Z" fill="white"/>
<path d="M80.1866 102.407C79.8441 102.526 79.1769 102.558 78.6206 102.409C77.5078 102.111 77.0765 101.449 77.3964 100.255L78.3468 96.7082L77.4311 96.4628L77.6578 95.6166L78.5735 95.862L79.0363 94.1349L80.1345 94.2553L79.6283 96.1446L81.2742 96.5857L81.0475 97.4318L79.4016 96.9908L78.4885 100.399C78.3207 101.024 78.3667 101.409 79.0853 101.602C79.4446 101.698 79.9139 101.663 80.2062 101.592L80.1866 102.407Z" fill="white"/>
<path d="M75.2484 100.152C75.1615 100.476 75.1822 100.631 75.4835 100.711C75.5878 100.739 75.6984 100.744 75.8615 100.738L75.7308 101.411C75.4679 101.465 75.1479 101.454 74.8582 101.376C74.267 101.218 74.0874 100.822 74.1319 100.424C73.544 100.763 72.8583 100.865 72.0237 100.642C70.5169 100.238 70.5352 99.1495 70.6905 98.5699C71.116 96.9819 72.6365 96.9173 74.3172 97.3676C74.5027 97.4173 74.6734 97.4755 74.8326 97.5306L74.9879 96.951C75.1898 96.1976 75.1054 95.678 74.1317 95.4172C73.3087 95.1966 72.9088 95.4373 72.6043 96.0639L71.7236 95.6415C72.2072 94.5785 73.0656 94.2494 74.445 94.619C75.917 95.0135 76.4255 95.7585 76.028 97.2421L75.2484 100.152ZM74.6392 98.2987C74.4832 98.232 74.266 98.1614 74.0458 98.1024C73.2228 97.8819 72.0999 97.668 71.8266 98.688C71.69 99.198 71.7574 99.6882 72.5688 99.9056C73.1831 100.07 73.8612 99.904 74.2789 99.6433L74.6392 98.2987Z" fill="white"/>
<path d="M69.7726 99.6162C69.43 99.7356 68.7629 99.7681 68.2065 99.619C67.0937 99.3208 66.6624 98.6586 66.9823 97.4648L67.9327 93.9179L67.017 93.6725L67.2437 92.8264L68.1594 93.0717L68.6222 91.3446L69.7205 91.465L69.2142 93.3544L70.8602 93.7954L70.6335 94.6415L68.9875 94.2005L68.0744 97.6083C67.9067 98.2342 67.9526 98.6192 68.6713 98.8118C69.0306 98.9081 69.4998 98.8723 69.7921 98.8015L69.7726 99.6162Z" fill="white"/>
<path d="M64.5458 98.489L63.491 98.2064L65.8359 89.4551L66.8907 89.7377L64.5458 98.489Z" fill="white"/>
<path d="M58.3281 90.4377L59.3829 90.7204L58.3425 94.6034C58.1219 95.4264 58.1979 95.9312 59.0788 96.1673C59.7627 96.3505 60.6109 96.1057 61.0015 95.8998L62.188 91.472L63.2428 91.7546L61.6464 97.7124L60.7307 97.4671L60.8444 96.7646C60.1375 97.0845 59.3434 97.2196 58.5205 96.9991C57.257 96.6606 56.887 95.816 57.2442 94.483L58.3281 90.4377Z" fill="white"/>
<path d="M54.6725 89.3217C56.0867 89.7006 56.4861 90.5282 56.3889 91.6327L55.3825 91.5867C55.4267 90.8655 55.3067 90.3861 54.4373 90.1532C53.568 89.9202 53.1873 90.2282 53.0662 90.6803C52.9016 91.2946 53.3418 91.5989 54.1298 91.9964C55.1572 92.5202 56.1298 93.0168 55.7727 94.3498C55.4683 95.4857 54.4072 95.922 52.9584 95.5337C51.5906 95.1672 50.9105 94.4135 51.0449 93.17L52.0521 93.1665C52.0436 93.8475 52.1735 94.429 53.2283 94.7116C53.947 94.9042 54.5276 94.8237 54.6984 94.1862C54.8754 93.5255 54.4197 93.2791 53.6518 92.8994C52.7309 92.4415 51.6161 91.9192 51.9888 90.5282C52.3118 89.3228 53.4671 88.9987 54.6725 89.3217Z" fill="white"/>
<path d="M49.3226 94.41L48.2678 94.1274L49.3083 90.2443C49.5288 89.4214 49.3486 88.8886 48.5372 88.6712C47.8533 88.4879 46.9934 88.7296 46.606 88.9239L45.4164 93.3633L44.3616 93.0807L45.958 87.1229L46.8853 87.3713L46.7538 88.0939C47.4576 87.7856 48.2988 87.6134 49.1218 87.8339C50.3968 88.1756 50.7668 89.0201 50.4066 90.3647L49.3226 94.41Z" fill="white"/>
<path d="M39.9972 92.0608C37.934 91.508 37.6073 89.9918 38.0794 88.2299C38.595 86.3058 39.9148 85.3674 41.8157 85.8768C43.7051 86.383 44.1556 87.8082 43.6804 89.5816C43.1555 91.5405 42.0025 92.5982 39.9972 92.0608ZM40.2819 91.2302C41.3135 91.5066 42.1072 91.0484 42.5606 89.3561C43.0016 87.7102 42.5681 87.0101 41.5364 86.7337C40.4817 86.4511 39.6069 86.8875 39.1814 88.4755C38.759 90.0519 39.1228 90.9196 40.2819 91.2302Z" fill="white"/>
<path d="M32.9222 90.165C30.291 89.46 29.6897 87.485 30.3636 84.9698C31.1215 82.1415 33.0809 80.9025 35.4687 81.5423C37.2306 82.0144 38.2294 83.2013 37.832 85.1944L36.8072 85.0316C36.9959 83.6783 36.588 82.836 35.2086 82.4665C33.47 82.0006 32.1077 82.8655 31.4897 85.1721C30.8436 87.583 31.5564 88.8176 33.2371 89.2679C34.5701 89.6251 35.3745 89.2195 35.9579 88.1086L36.8671 88.5635C36.0804 90.3404 34.3943 90.5594 32.9222 90.165Z" fill="white"/>
<path d="M102.037 88.6914L103.207 89.0051L103.517 94.1567L103.528 94.1598L106.43 89.8685L107.508 90.1574L103.105 96.295C102.291 97.4311 101.626 97.7372 100.687 97.4856C100.246 97.3676 99.802 97.1244 99.5981 96.9579L99.9462 96.1691C100.145 96.3093 100.534 96.5254 100.847 96.6092C101.276 96.7242 101.706 96.6033 102.162 95.9677L102.636 95.312L102.037 88.6914Z" fill="white"/>
<path d="M98.406 87.5819C99.1363 87.7776 99.6986 88.0898 99.9871 88.5895C100.288 88.2103 100.687 87.9696 101.128 88.0876C101.313 88.1373 101.466 88.2156 101.625 88.3201L101.417 89.0967C101.063 88.9773 100.549 88.9017 100.223 88.9136C100.438 89.3189 100.457 89.8956 100.327 90.3824C99.9664 91.727 98.6803 92.2148 97.3126 91.8483C96.9185 91.7427 96.5221 91.5992 96.2487 91.4141C96.046 91.5213 95.7908 91.6393 95.7256 91.8827C95.6635 92.1145 95.7444 92.3226 96.3695 92.5398L98.0423 93.1122C99.2492 93.5226 99.8871 94.0165 99.5734 95.1872C99.1821 96.6477 97.4993 96.6689 96.004 96.2682C93.7785 95.6719 93.5314 94.7858 93.7209 94.0787C93.901 93.4064 94.5005 93.0701 95.0494 92.9687L95.0526 92.9571C94.6903 92.6862 94.5184 92.3543 94.6333 91.9255C94.7699 91.4155 95.2216 91.2135 95.7259 91.0007C95.2587 90.565 95.0872 89.8606 95.2922 89.0956C95.6431 87.7858 96.8644 87.1689 98.406 87.5819ZM99.3004 90.1323C99.5396 89.2398 99.0981 88.6618 98.194 88.4196C97.371 88.1991 96.5731 88.3952 96.3277 89.3109C96.1196 90.0875 96.435 90.7187 97.4898 91.0013C98.3591 91.2342 99.0861 90.9321 99.3004 90.1323ZM98.4497 95.0228C98.5646 94.5939 98.4475 94.2892 97.6516 94.0138L95.7122 93.3699C95.1794 93.5502 94.8993 93.7609 94.7937 94.155C94.6602 94.6534 94.9758 95.0982 96.3551 95.4678C97.5838 95.797 98.282 95.6487 98.4497 95.0228Z" fill="white"/>
<path d="M90.6769 92.1819C88.5673 91.6167 88.3243 89.9738 88.7622 88.3394C89.3461 86.1603 90.8727 85.5631 92.4027 85.973C94.0718 86.4203 94.4722 87.7078 94.0778 89.1799C94.0157 89.4117 93.9327 89.6752 93.8233 89.944L89.8128 88.8694C89.4523 90.4003 89.9973 91.0557 90.9477 91.3103C91.7939 91.5371 92.2905 91.2602 92.6329 90.6314L93.5043 91.0885C92.9503 92.1823 91.8708 92.5018 90.6769 92.1819ZM93.0038 88.83C93.2895 87.7636 93.0422 87.0637 92.1033 86.8122C91.3151 86.601 90.4228 86.8712 90.048 88.038L93.0038 88.83Z" fill="white"/>
<path d="M87.4562 90.896C87.1136 91.0154 86.4465 91.0479 85.8901 90.8988C84.7773 90.6006 84.346 89.9384 84.6659 88.7445L85.6163 85.1977L84.7006 84.9523L84.9273 84.1061L85.843 84.3515L86.3058 82.6244L87.4041 82.7448L86.8978 84.6341L88.5438 85.0752L88.317 85.9213L86.6711 85.4803L85.758 88.8881C85.5903 89.514 85.6362 89.899 86.3548 90.0916C86.7142 90.1878 87.1834 90.1521 87.4757 90.0813L87.4562 90.896Z" fill="white"/>
<path d="M82.518 88.641C82.431 88.9656 82.4517 89.1202 82.7531 89.2009C82.8574 89.2289 82.9679 89.2337 83.131 89.2277L83.0003 89.9008C82.7375 89.9546 82.4175 89.9434 82.1277 89.8657C81.5365 89.7073 81.3569 89.3113 81.4014 88.9133C80.8136 89.2527 80.1278 89.3547 79.2932 89.1311C77.7864 88.7273 77.8047 87.639 77.96 87.0594C78.3855 85.4714 79.906 85.4068 81.5867 85.8571C81.7722 85.9068 81.943 85.965 82.1021 86.0201L82.2574 85.4405C82.4593 84.6871 82.3749 84.1675 81.4012 83.9067C80.5783 83.6861 80.1784 83.9268 79.8738 84.5534L78.9931 84.131C79.4767 83.068 80.3352 82.7389 81.7145 83.1085C83.1866 83.503 83.6951 84.248 83.2975 85.7316L82.518 88.641ZM81.9087 86.7882C81.7527 86.7215 81.5356 86.6509 81.3153 86.5919C80.4924 86.3714 79.3695 86.1575 79.0962 87.1775C78.9595 87.6875 79.0269 88.1777 79.8383 88.3951C80.4526 88.5597 81.1307 88.3935 81.5485 88.1328L81.9087 86.7882Z" fill="white"/>
<path d="M78.3967 83.3997C77.6828 83.0966 76.7211 83.162 76.1132 83.4836L74.9516 87.8186L73.8968 87.536L75.4932 81.5782L76.3741 81.8142L76.2254 82.6937C76.9365 82.1264 77.6369 82.0159 78.4715 82.2396C78.541 82.2582 78.5874 82.2706 78.6886 82.3102L78.3967 83.3997Z" fill="white"/>
<path d="M72.8976 86.9956C72.555 87.115 71.8879 87.1475 71.3315 86.9984C70.2187 86.7002 69.7874 86.038 70.1073 84.8441L71.0577 81.2973L70.142 81.0519L70.3687 80.2058L71.2844 80.4511L71.7472 78.724L72.8455 78.8444L72.3392 80.7337L73.9852 81.1748L73.7585 82.0209L72.1125 81.5799L71.1994 84.9877C71.0317 85.6136 71.0776 85.9986 71.7963 86.1912C72.1556 86.2875 72.6248 86.2517 72.9171 86.1809L72.8976 86.9956Z" fill="white"/>
<path d="M67.32 77.5869C66.0334 77.2422 65.4176 77.6859 65.2188 78.4277C64.9455 79.4478 65.8183 79.9922 66.7893 80.5878C67.9217 81.2764 69.149 82.0276 68.7142 83.6504C68.239 85.4238 66.6386 85.7404 65.0853 85.3242C63.3351 84.8552 62.4319 83.8678 62.6744 82.0817L63.7348 82.2043C63.6927 83.1497 63.9019 84.0381 65.3392 84.4232C66.2433 84.6654 67.2861 84.6219 67.5843 83.5091C67.8638 82.4659 66.9995 81.9362 66.0455 81.37C64.8868 80.6868 63.6385 79.9672 64.1013 78.2401C64.4864 76.8028 65.928 76.2449 67.5507 76.6797C69.0228 77.0742 69.9833 77.9403 69.6758 79.7835L68.6479 79.6323C68.7347 78.7984 68.6183 77.9348 67.32 77.5869Z" fill="white"/>
<path d="M58.1179 76.7858C59.532 77.1647 59.9314 77.9923 59.8342 79.0968L58.8278 79.0508C58.872 78.3296 58.752 77.8502 57.8826 77.6173C57.0133 77.3844 56.6326 77.6923 56.5115 78.1444C56.3469 78.7587 56.7871 79.063 57.5751 79.4605C58.6026 79.9843 59.5752 80.4809 59.218 81.8139C58.9136 82.9498 57.8526 83.3861 56.4037 82.9978C55.0359 82.6314 54.3558 81.8776 54.4903 80.6341L55.4975 80.6306C55.4889 81.3116 55.6189 81.8931 56.6736 82.1757C57.3923 82.3683 57.9729 82.2878 58.1437 81.6503C58.3208 80.9896 57.865 80.7432 57.0971 80.3636C56.1762 79.9056 55.0614 79.3833 55.4341 77.9924C55.7571 76.7869 56.9124 76.4628 58.1179 76.7858Z" fill="white"/>
<path d="M53.5538 81.812C53.2112 81.9314 52.5441 81.9639 51.9877 81.8148C50.875 81.5166 50.4437 80.8544 50.7636 79.6606L51.714 76.1137L50.7983 75.8683L51.025 75.0222L51.9407 75.2675L52.4035 73.5404L53.5017 73.6608L52.9955 75.5502L54.6414 75.9912L54.4147 76.8373L52.7688 76.3963L51.8557 79.8041C51.6879 80.43 51.7339 80.815 52.4525 81.0076C52.8118 81.1039 53.2811 81.0681 53.5733 80.9973L53.5538 81.812Z" fill="white"/>
<path d="M48.3968 80.7034L47.342 80.4208L48.3825 76.5378C48.603 75.7148 48.4228 75.182 47.6114 74.9646C46.9275 74.7814 46.0677 75.0231 45.6802 75.2174L44.4906 79.6568L43.4358 79.3742L45.0322 73.4163L45.9595 73.6648L45.828 74.3874C46.5318 74.079 47.373 73.9069 48.196 74.1274C49.471 74.469 49.8411 75.3136 49.4808 76.6581L48.3968 80.7034Z" fill="white"/>
<path d="M41.6013 78.8833L40.5465 78.6007L42.1429 72.6428L43.1977 72.9255L41.6013 78.8833ZM43.9535 71.0781C43.8231 71.565 43.4704 71.7686 42.9951 71.6413C42.5199 71.5139 42.3278 71.1643 42.4583 70.6775C42.5887 70.1907 42.9268 69.9955 43.402 70.1228C43.8772 70.2502 44.084 70.5913 43.9535 71.0781Z" fill="white"/>
<path d="M36.1847 77.5809C34.1215 77.028 33.7948 75.5118 34.2669 73.75C34.7825 71.8258 36.1023 70.8875 38.0032 71.3968C39.8926 71.9031 40.3431 73.3282 39.8679 75.1017C39.343 77.0606 38.19 78.1182 36.1847 77.5809ZM36.4694 76.7502C37.501 77.0267 38.2947 76.5685 38.7481 74.8762C39.1891 73.2302 38.7556 72.5301 37.7239 72.2537C36.6692 71.9711 35.7944 72.4076 35.3689 73.9955C34.9465 75.5719 35.3103 76.4397 36.4694 76.7502Z" fill="white"/>
<path d="M28.1929 75.2903L27.1381 75.0077L29.3867 66.6157L32.1222 67.3487C34.2666 67.9233 34.5989 69.2795 34.2417 70.6125C33.7075 72.6061 32.3016 73.1239 30.2847 72.5835L29.0097 72.2419L28.1929 75.2903ZM30.449 71.6461C31.666 71.9722 32.7057 71.9402 33.125 70.3754C33.448 69.1699 32.9116 68.5292 31.567 68.1689L30.1993 67.8025L29.2551 71.3262L30.449 71.6461Z" fill="white"/>
</svg>
